Coordinates
version=1
nRows=13
nColumns=40
inDegrees=yes

Units are S.I. units (second, meters, Newtons, ...)
If the header above contains a line with 'inDegrees', this indicates whether rotational values are in degrees (yes) or radians (no).

endheader
time	pelvis_tilt	pelvis_list	pelvis_rotation	pelvis_tx	pelvis_ty	pelvis_tz	hip_flexion_r	hip_adduction_r	hip_rotation_r	knee_angle_r	knee_angle_r_beta	ankle_angle_r	subtalar_angle_r	mtp_angle_r	hip_flexion_l	hip_adduction_l	hip_rotation_l	knee_angle_l	knee_angle_l_beta	ankle_angle_l	subtalar_angle_l	mtp_angle_l	lumbar_extension	lumbar_bending	lumbar_rotation	arm_flex_r	arm_add_r	arm_rot_r	elbow_flex_r	pro_sup_r	wrist_flex_r	wrist_dev_r	arm_flex_l	arm_add_l	arm_rot_l	elbow_flex_l	pro_sup_l	wrist_flex_l	wrist_dev_l
      0.00000000	      1.09050115	     89.83392156	      6.49534737	      0.03934644	      0.32212510	      0.92185371	     30.30469064	     -0.89314577	     -8.37807240	      9.41010067	      0.16423724	    -16.35139851	      0.00000000	      0.00000000	    -10.04347767	      2.92089552	      3.28500580	     18.75467736	      0.32733087	      8.95899948	      0.00000000	      0.00000000	    -11.87106372	      1.71845639	    -13.50704638	     -1.09909960	    -11.98175461	      4.15841325	     35.10492195	     80.44253259	      0.00000000	      0.00000000	      7.98009169	    -26.76149404	     23.12665209	     54.22214610	     73.75069688	      0.00000000	      0.00000000
      0.00400000	      1.08303998	     89.83634604	      6.47096332	      0.04541120	      0.32224557	      0.92086121	     30.43545439	     -0.80017584	     -8.37960481	      9.39681817	      0.16400542	    -16.35052731	      0.00000000	      0.00000000	    -10.38173337	      2.87531818	      3.34146033	     18.89712764	      0.32981710	      8.91614532	      0.00000000	      0.00000000	    -11.79536208	      1.74643405	    -13.47329469	     -1.17126541	    -11.96438003	      4.15371355	     35.04548690	     80.44105525	      0.00000000	      0.00000000	      7.93072953	    -26.74400872	     23.11441298	     54.19726570	     73.74981487	      0.00000000	      0.00000000
      0.00800000	      1.08683587	     89.83620643	      6.45517666	      0.05142857	      0.32261125	      0.91996385	     30.54612957	     -0.72654185	     -8.39790077	      9.42253005	      0.16445417	    -16.34189836	      0.00000000	      0.00000000	    -10.69809817	      2.84366153	      3.43235004	     19.08208487	      0.33304521	      8.78812815	      0.00000000	      0.00000000	    -11.73325905	      1.81424069	    -13.44102712	     -1.21489905	    -11.97354979	      4.13434208	     34.95947335	     80.43478661	      0.00000000	      0.00000000	      7.90080860	    -26.67169052	     23.09775205	     54.16011715	     73.74758586	      0.00000000	      0.00000000
      0.01200000	      1.25935707	     89.83910449	      6.41904255	      0.05702965	      0.32299300	      0.91908564	     30.78798591	     -0.76977284	     -8.46880286	      9.81059924	      0.17122726	    -16.03373264	      0.00000000	      0.00000000	    -10.75596250	      2.76731314	      3.52171513	     19.69747081	      0.34378572	      8.43102890	      0.00000000	      0.00000000	    -11.70596058	      1.87863217	    -13.52751172	     -1.14377633	    -11.90364868	      4.04609318	     34.66157278	     80.39090324	      0.00000000	      0.00000000	      8.00847171	    -26.58752284	     23.11304458	     53.93669453	     73.81930843	      0.00000000	      0.00000000
      0.01600000	      1.29601259	     89.83998949	      6.38638432	      0.06310442	      0.32334690	      0.91824649	     30.91160460	     -0.72070092	     -8.47168007	     10.00625227	      0.17464205	    -16.06631321	      0.00000000	      0.00000000	    -11.01425179	      2.71894919	      3.64525899	     19.99227499	      0.34893102	      8.28718621	      0.00000000	      0.00000000	    -11.64998565	      1.94679370	    -13.48106192	     -1.20132035	    -11.92982630	      3.99354818	     34.58685518	     80.37553914	      0.00000000	      0.00000000	      7.96439479	    -26.49645855	     23.04825836	     53.87386866	     73.83277412	      0.00000000	      0.00000000
      0.02000000	      1.41807724	     89.84136028	      6.43983841	      0.06899212	      0.32388895	      0.91745698	     31.00174574	     -0.77529085	     -8.34462146	     10.22282403	      0.17842194	    -16.00513823	      0.00000000	      0.00000000	    -11.23376176	      2.63992991	      3.86147323	     20.31070856	      0.35448874	      8.10322103	      0.00000000	      0.00000000	    -11.59247374	      2.02635688	    -13.61178781	     -1.24640044	    -11.91135244	      3.94974688	     34.52317893	     80.33345534	      0.00000000	      0.00000000	      7.95970212	    -26.42671080	     23.01918056	     53.75958320	     73.87199098	      0.00000000	      0.00000000
      0.02400000	      1.40755592	     89.84531685	      6.41352346	      0.07545707	      0.32412754	      0.91661649	     30.99613692	     -0.68788333	     -8.33384282	     10.29160319	      0.17962236	    -16.01310285	      0.00000000	      0.00000000	    -11.55922538	      2.58948129	      3.93006465	     20.50147822	      0.35781830	      8.02262833	      0.00000000	      0.00000000	    -11.48741203	      2.07036339	    -13.55673642	     -1.33840489	    -11.94547175	      3.94168663	     34.45410206	     80.32452554	      0.00000000	      0.00000000	      7.84578109	    -26.36603715	     23.03551948	     53.72276438	     73.88074063	      0.00000000	      0.00000000
      0.02800000	      1.49022493	     89.84656239	      6.41497521	      0.08115406	      0.32477903	      0.91590023	     31.17165906	     -0.73070529	     -8.02161068	     10.78368067	      0.18821073	    -15.89444097	      0.00000000	      0.00000000	    -11.66726902	      2.54861303	      4.15375316	     21.00391290	      0.36658744	      7.60640549	      0.00000000	      0.00000000	    -11.47817120	      2.17473465	    -13.56048349	     -1.33669929	    -11.98885972	      3.91318935	     34.36299477	     80.27440130	      0.00000000	      0.00000000	      7.89140512	    -26.19708524	     22.90585806	     53.51986073	     73.92123914	      0.00000000	      0.00000000
      0.03200000	      1.64023252	     89.84655571	      6.34927606	      0.08727204	      0.32507882	      0.91506339	     31.40128982	     -0.76635122	     -8.22408503	     11.49293852	      0.20058962	    -15.45210157	      0.00000000	      0.00000000	    -11.61372551	      2.42286292	      3.93703853	     21.86986310	      0.38170112	      7.39502637	      0.00000000	      0.00000000	    -11.40402588	      2.22758979	    -13.58556306	     -1.39979786	    -12.00165112	      3.92100613	     34.29743217	     80.16778515	      0.00000000	      0.00000000	      7.83995737	    -26.14187805	     22.89583082	     53.44038877	     74.15106533	      0.00000000	      0.00000000
      0.03600000	      1.65365985	     89.84833627	      6.34742965	      0.09392782	      0.32526124	      0.91437131	     31.32121732	     -0.69450805	     -8.14391293	     11.61501513	      0.20272026	    -15.51303245	      0.00000000	      0.00000000	    -11.95450301	      2.33991319	      4.03669903	     22.04693237	      0.38479156	      7.29941765	      0.00000000	      0.00000000	    -11.27357575	      2.26221115	    -13.54557103	     -1.53779719	    -12.01247996	      3.92322334	     34.24010339	     80.16156886	      0.00000000	      0.00000000	      7.69575341	    -26.09242503	     22.90081993	     53.38196258	     74.15579333	      0.00000000	      0.00000000
      0.04000000	      1.65393089	     89.85178131	      6.28025709	      0.10006136	      0.32589690	      0.91371443	     31.43744544	     -0.65739267	     -7.70144810	     12.16330704	      0.21228976	    -15.43364031	      0.00000000	      0.00000000	    -12.14829822	      2.33710531	      4.29095339	     22.41057209	      0.39113827	      6.70564978	      0.00000000	      0.00000000	    -11.22289493	      2.35031379	    -13.41668478	     -1.56277183	    -12.13266653	      3.94197135	     34.21588497	     80.14621913	      0.00000000	      0.00000000	      7.63538110	    -25.85356657	     22.72357768	     53.16936914	     74.18361782	      0.00000000	      0.00000000
      0.04400000	      1.78004366	     89.85183419	      6.18836960	      0.10637121	      0.32641201	      0.91301554	     31.65953435	     -0.70698059	     -7.87550848	     13.04682725	      0.22771009	    -15.00423907	      0.00000000	      0.00000000	    -12.27520617	      2.25820966	      4.18408696	     22.89938159	      0.39966961	      6.21317090	      0.00000000	      0.00000000	    -11.14073926	      2.43693252	    -13.40993250	     -1.62603458	    -12.24171101	      4.13173134	     34.17315275	     80.03271688	      0.00000000	      0.00000000	      7.48632460	    -25.70739189	     22.53186260	     53.09458577	     74.40103340	      0.00000000	      0.00000000
      0.04800000	      1.77698460	     89.85438285	      6.11272627	      0.11288638	      0.32672574	      0.91242571	     31.69593920	     -0.61608258	     -7.77583536	     13.53840693	      0.23628978	    -15.00854423	      0.00000000	      0.00000000	    -12.52409780	      2.22772617	      4.29675628	     23.19310607	      0.40479606	      5.76866139	      0.00000000	      0.00000000	    -11.04648788	      2.49053289	    -13.28227208	     -1.71271363	    -12.32240103	      4.18019775	     34.16200389	     80.02390303	      0.00000000	      0.00000000	      7.35560935	    -25.54497857	     22.38156059	     52.93652203	     74.44309879	      0.00000000	      0.00000000
